<svg width="319" height="59" viewBox="0 0 319 59" fill="none" xmlns="http://www.w3.org/2000/svg">
<path fill-rule="evenodd" clip-rule="evenodd" d="M30.4339 8.01429C27.295 9.35909 22.7647 9.35908 19.6258 8.01428C17.0755 6.92164 14.2229 6.82031 11.5907 7.96525C6.03597 10.3814 3.54458 17.4423 5.96221 23.8117C5.96275 23.8131 5.96272 23.8147 5.96214 23.8161V23.8161L6.7166 25.4566C9.26692 31.0021 11.1893 36.8154 12.4478 42.7881L13.645 48.4697C14.0593 50.103 15.5234 51.2461 17.2011 51.2461C19.003 51.2461 20.5383 49.9318 20.8243 48.1445L22.5121 37.599C22.7109 36.357 23.7778 35.4438 25.0299 35.4438C26.282 35.4438 27.3489 36.3571 27.5477 37.5991L29.2355 48.1445C29.5215 49.9318 31.0568 51.2461 32.8587 51.2461C34.5364 51.2461 36.0005 50.103 36.4148 48.4697L37.612 42.7881C38.8705 36.8154 40.7929 31.0021 43.3432 25.4566L44.0977 23.8161V23.8161C44.0971 23.8147 44.097 23.8131 44.0976 23.8117C46.5152 17.4423 44.0238 10.3814 38.4691 7.96525C35.8369 6.8203 32.9842 6.92163 30.4339 8.01429Z" fill="url(#paint0_linear_199_167)"/>
<g filter="url(#filter0_f_199_167)">
<path d="M12.6192 11.7896L12.4584 11.0224C12.3701 10.6012 11.9986 10.2995 11.5683 10.2995C11.1258 10.2995 10.7476 10.6179 10.6721 11.0539L10.5793 11.5902C10.195 13.8113 8.48216 15.5661 6.27102 16.0041L5.09661 16.2367C4.69745 16.3157 4.40984 16.6659 4.40984 17.0728C4.40984 17.4925 4.7153 17.8497 5.12988 17.9148L6.03979 18.0578C8.36893 18.4239 10.2013 20.2414 10.5863 22.5675L10.6778 23.1201C10.7498 23.5555 11.1264 23.8749 11.5677 23.8749C11.9975 23.8749 12.3677 23.5716 12.4522 23.1501L12.6521 22.153C13.072 20.0585 14.7469 18.444 16.8554 18.1014L17.9798 17.9187C18.3948 17.8512 18.6997 17.4928 18.6997 17.0723C18.6997 16.6651 18.4133 16.314 18.0143 16.2323L16.8409 15.992C14.7218 15.558 13.0629 13.9068 12.6192 11.7896Z" fill="url(#paint1_linear_199_167)"/>
</g>
<path d="M12.2961 13.3209L11.9564 10.6483C11.931 10.4489 11.7614 10.2995 11.5604 10.2995C11.3547 10.2995 11.1826 10.4559 11.1631 10.6608L10.9106 13.3149C10.762 14.8767 9.54368 16.1231 7.98566 16.3073L4.75822 16.6888C4.55953 16.7122 4.40984 16.8807 4.40984 17.0808C4.40984 17.2862 4.5675 17.4574 4.77231 17.4741L7.81643 17.7237C9.45806 17.8583 10.7654 19.1533 10.9155 20.7936L11.1645 23.5137C11.1832 23.7183 11.3548 23.8749 11.5602 23.8749C11.7611 23.8749 11.9303 23.725 11.9547 23.5257L12.2893 20.7894C12.491 19.139 13.8227 17.8563 15.4795 17.7164L18.3371 17.4751C18.5421 17.4577 18.6997 17.2863 18.6997 17.0806C18.6997 16.8804 18.5503 16.7118 18.3517 16.6876L15.3081 16.317C13.7366 16.1257 12.4957 14.8914 12.2961 13.3209Z" fill="url(#paint2_linear_199_167)"/>
<g filter="url(#filter1_f_199_167)">
<path d="M37.3555 30.7648L37.2543 30.2824C37.1988 30.0176 36.9653 29.8279 36.6947 29.8279C36.4165 29.8279 36.1786 30.0281 36.1312 30.3022L36.0729 30.6395C35.8312 32.036 34.7542 33.1394 33.3639 33.4148L32.6255 33.561C32.3745 33.6107 32.1937 33.8309 32.1937 34.0867C32.1937 34.3506 32.3857 34.5752 32.6464 34.6162L33.2185 34.7061C34.683 34.9362 35.8352 36.079 36.0772 37.5416L36.1347 37.8891C36.1801 38.1629 36.4168 38.3637 36.6943 38.3637C36.9646 38.3637 37.1973 38.173 37.2504 37.908L37.3761 37.281C37.6401 35.964 38.6933 34.9489 40.0191 34.7335L40.7261 34.6186C40.987 34.5762 41.1787 34.3508 41.1787 34.0864C41.1787 33.8304 40.9986 33.6096 40.7477 33.5583L40.01 33.4072C38.6775 33.1343 37.6345 32.096 37.3555 30.7648Z" fill="url(#paint3_linear_199_167)"/>
</g>
<path d="M37.1523 31.7277L36.9387 30.0472C36.9228 29.9218 36.8161 29.8279 36.6898 29.8279C36.5604 29.8279 36.4522 29.9262 36.4399 30.055L36.2811 31.7239C36.1877 32.7059 35.4217 33.4896 34.442 33.6054L32.4127 33.8453C32.2878 33.86 32.1937 33.9659 32.1937 34.0917C32.1937 34.2209 32.2928 34.3285 32.4216 34.3391L34.3356 34.496C35.3678 34.5806 36.1899 35.3949 36.2843 36.4263L36.4408 38.1366C36.4526 38.2652 36.5604 38.3637 36.6896 38.3637C36.8159 38.3637 36.9223 38.2695 36.9377 38.1441L37.148 36.4236C37.2749 35.3859 38.1122 34.5793 39.1539 34.4914L40.9507 34.3397C41.0796 34.3288 41.1787 34.221 41.1787 34.0916C41.1787 33.9658 41.0848 33.8597 40.9599 33.8445L39.0462 33.6115C38.058 33.4912 37.2778 32.7151 37.1523 31.7277Z" fill="url(#paint4_linear_199_167)"/>
<path d="M80.523 40.252C78.171 40.252 76.011 39.7 74.043 38.596C72.075 37.492 70.515 35.968 69.363 34.024C68.211 32.056 67.635 29.836 67.635 27.364C67.635 24.916 68.211 22.72 69.363 20.776C70.515 18.808 72.075 17.272 74.043 16.168C76.011 15.064 78.171 14.512 80.523 14.512C82.899 14.512 85.059 15.064 87.003 16.168C88.971 17.272 90.519 18.808 91.647 20.776C92.799 22.72 93.375 24.916 93.375 27.364C93.375 29.836 92.799 32.056 91.647 34.024C90.519 35.968 88.971 37.492 87.003 38.596C85.035 39.7 82.875 40.252 80.523 40.252ZM80.523 35.752C82.035 35.752 83.367 35.416 84.519 34.744C85.671 34.048 86.571 33.064 87.219 31.792C87.867 30.52 88.191 29.044 88.191 27.364C88.191 25.684 87.867 24.22 87.219 22.972C86.571 21.7 85.671 20.728 84.519 20.056C83.367 19.384 82.035 19.048 80.523 19.048C79.011 19.048 77.667 19.384 76.491 20.056C75.339 20.728 74.439 21.7 73.791 22.972C73.143 24.22 72.819 25.684 72.819 27.364C72.819 29.044 73.143 30.52 73.791 31.792C74.439 33.064 75.339 34.048 76.491 34.744C77.667 35.416 79.011 35.752 80.523 35.752ZM110.085 40L104.541 30.208H102.165V40H97.1246V14.872H106.557C108.501 14.872 110.157 15.22 111.525 15.916C112.893 16.588 113.913 17.512 114.585 18.688C115.281 19.84 115.629 21.136 115.629 22.576C115.629 24.232 115.149 25.732 114.189 27.076C113.229 28.396 111.801 29.308 109.905 29.812L115.917 40H110.085ZM102.165 26.428H106.377C107.745 26.428 108.765 26.104 109.437 25.456C110.109 24.784 110.445 23.86 110.445 22.684C110.445 21.532 110.109 20.644 109.437 20.02C108.765 19.372 107.745 19.048 106.377 19.048H102.165V26.428ZM137.287 14.872V18.94H130.591V40H125.551V18.94H118.855V14.872H137.287ZM161.808 14.872V40H156.768V29.308H146.004V40H140.964V14.872H146.004V25.204H156.768V14.872H161.808ZM178.433 40.252C176.081 40.252 173.921 39.7 171.953 38.596C169.985 37.492 168.425 35.968 167.273 34.024C166.121 32.056 165.545 29.836 165.545 27.364C165.545 24.916 166.121 22.72 167.273 20.776C168.425 18.808 169.985 17.272 171.953 16.168C173.921 15.064 176.081 14.512 178.433 14.512C180.809 14.512 182.969 15.064 184.913 16.168C186.881 17.272 188.429 18.808 189.557 20.776C190.709 22.72 191.285 24.916 191.285 27.364C191.285 29.836 190.709 32.056 189.557 34.024C188.429 35.968 186.881 37.492 184.913 38.596C182.945 39.7 180.785 40.252 178.433 40.252ZM178.433 35.752C179.945 35.752 181.277 35.416 182.429 34.744C183.581 34.048 184.481 33.064 185.129 31.792C185.777 30.52 186.101 29.044 186.101 27.364C186.101 25.684 185.777 24.22 185.129 22.972C184.481 21.7 183.581 20.728 182.429 20.056C181.277 19.384 179.945 19.048 178.433 19.048C176.921 19.048 175.577 19.384 174.401 20.056C173.249 20.728 172.349 21.7 171.701 22.972C171.053 24.22 170.729 25.684 170.729 27.364C170.729 29.044 171.053 30.52 171.701 31.792C172.349 33.064 173.249 34.048 174.401 34.744C175.577 35.416 176.921 35.752 178.433 35.752ZM202.389 27.4C202.389 24.928 202.941 22.72 204.045 20.776C205.173 18.808 206.697 17.284 208.617 16.204C210.561 15.1 212.733 14.548 215.133 14.548C217.941 14.548 220.401 15.268 222.513 16.708C224.625 18.148 226.101 20.14 226.941 22.684H221.145C220.569 21.484 219.753 20.584 218.697 19.984C217.665 19.384 216.465 19.084 215.097 19.084C213.633 19.084 212.325 19.432 211.173 20.128C210.045 20.8 209.157 21.76 208.509 23.008C207.885 24.256 207.573 25.72 207.573 27.4C207.573 29.056 207.885 30.52 208.509 31.792C209.157 33.04 210.045 34.012 211.173 34.708C212.325 35.38 213.633 35.716 215.097 35.716C216.465 35.716 217.665 35.416 218.697 34.816C219.753 34.192 220.569 33.28 221.145 32.08H226.941C226.101 34.648 224.625 36.652 222.513 38.092C220.425 39.508 217.965 40.216 215.133 40.216C212.733 40.216 210.561 39.676 208.617 38.596C206.697 37.492 205.173 35.968 204.045 34.024C202.941 32.08 202.389 29.872 202.389 27.4ZM246.654 35.212H236.646L234.99 40H229.698L238.734 14.836H244.602L253.638 40H248.31L246.654 35.212ZM245.286 31.18L241.65 20.668L238.014 31.18H245.286ZM269.975 40L264.431 30.208H262.055V40H257.015V14.872H266.447C268.391 14.872 270.047 15.22 271.415 15.916C272.783 16.588 273.803 17.512 274.475 18.688C275.171 19.84 275.519 21.136 275.519 22.576C275.519 24.232 275.039 25.732 274.079 27.076C273.119 28.396 271.691 29.308 269.795 29.812L275.807 40H269.975ZM262.055 26.428H266.267C267.635 26.428 268.655 26.104 269.327 25.456C269.999 24.784 270.335 23.86 270.335 22.684C270.335 21.532 269.999 20.644 269.327 20.02C268.655 19.372 267.635 19.048 266.267 19.048H262.055V26.428ZM285.118 18.94V25.24H293.578V29.236H285.118V35.896H294.658V40H280.078V14.836H294.658V18.94H285.118Z" fill="#071275"/>
<defs>
<filter id="filter0_f_199_167" x="0.409668" y="6.2995" width="22.29" height="21.5754" filterUnits="userSpaceOnUse" color-interpolation-filters="sRGB">
<feFlood flood-opacity="0" result="BackgroundImageFix"/>
<feBlend mode="normal" in="SourceGraphic" in2="BackgroundImageFix" result="shape"/>
<feGaussianBlur stdDeviation="2" result="effect1_foregroundBlur_199_167"/>
</filter>
<filter id="filter1_f_199_167" x="28.1938" y="25.8279" width="16.9849" height="16.5358" filterUnits="userSpaceOnUse" color-interpolation-filters="sRGB">
<feFlood flood-opacity="0" result="BackgroundImageFix"/>
<feBlend mode="normal" in="SourceGraphic" in2="BackgroundImageFix" result="shape"/>
<feGaussianBlur stdDeviation="2" result="effect1_foregroundBlur_199_167"/>
</filter>
<linearGradient id="paint0_linear_199_167" x1="10.3311" y1="7.14972" x2="34.4371" y2="49.4822" gradientUnits="userSpaceOnUse">
<stop stop-color="#F0F6F9"/>
<stop offset="1" stop-color="#CDDFF2"/>
</linearGradient>
<linearGradient id="paint1_linear_199_167" x1="11.5548" y1="10.2995" x2="11.5548" y2="23.8749" gradientUnits="userSpaceOnUse">
<stop stop-color="white"/>
<stop offset="1" stop-color="white"/>
</linearGradient>
<linearGradient id="paint2_linear_199_167" x1="11.5548" y1="10.2995" x2="11.5548" y2="23.8749" gradientUnits="userSpaceOnUse">
<stop stop-color="white"/>
<stop offset="1" stop-color="white"/>
</linearGradient>
<linearGradient id="paint3_linear_199_167" x1="36.6862" y1="29.8279" x2="36.6862" y2="38.3637" gradientUnits="userSpaceOnUse">
<stop stop-color="white"/>
<stop offset="1" stop-color="white"/>
</linearGradient>
<linearGradient id="paint4_linear_199_167" x1="36.6862" y1="29.8279" x2="36.6862" y2="38.3637" gradientUnits="userSpaceOnUse">
<stop stop-color="white"/>
<stop offset="1" stop-color="white"/>
</linearGradient>
</defs>
</svg>
